<svg xmlns="http://www.w3.org/2000/svg" width="18.013" height="18.114" viewBox="0 0 18.013 18.114">
    <path fill="#fff" d="M16.405 18.114A1.7 1.7 0 0 1 15.2 17.6L11.9 14a1.894 1.894 0 0 0-1.2-.564.666.666 0 0 0-.3.064 7.327 7.327 0 0 1-3.264.762 7.046 7.046 0 0 1-4.961-2.036 7.149 7.149 0 0 1-.5-9.744A7.068 7.068 0 0 1 7.077 0 7.625 7.625 0 0 1 8.3.1a7.109 7.109 0 0 1 5.8 6.1 6.627 6.627 0 0 1-.8 4.2c-.3.407.1 1.2.4 1.5l3.7 3.4a1.574 1.574 0 0 1 .3 2.2 1.713 1.713 0 0 1-1.295.614zM6.9 2.4a4.5 4.5 0 1 0 4.5 4.5 4.505 4.505 0 0 0-4.5-4.5z" transform="translate(-.002)"/>
</svg>
