<svg xmlns="http://www.w3.org/2000/svg" width="28.008" height="22" viewBox="0 0 28.008 22">
    <defs>
        <style>
            .cls-1,.cls-2{fill:none;stroke:#fff;stroke-miterlimit:10}.cls-1{stroke-linecap:round}
        </style>
    </defs>
    <g id="Page_1" transform="translate(.5 .5)">
        <path id="Stroke_1" d="M1.576 0h15.833c.4 0 .681.307.565.612l-2.942 7.717A1.182 1.182 0 0 1 13.9 9H0" class="cls-1" transform="translate(9 3)"/>
        <path id="Stroke_3" d="M24 16H10.956a1.211 1.211 0 0 1-1.162-.853L5.717.853A1.211 1.211 0 0 0 4.555 0H0" class="cls-1"/>
        <path id="Stroke_5" d="M4 1.5C4 2.329 3.1 3 2 3s-2-.671-2-1.5S.9 0 2 0s2 .671 2 1.5z" class="cls-2" transform="translate(10 18)"/>
        <path id="Stroke_7" d="M4 1.5C4 2.329 3.1 3 2 3s-2-.671-2-1.5S.9 0 2 0s2 .671 2 1.5z" class="cls-2" transform="translate(20 18)"/>
    </g>
</svg>
